<svg width="49" height="53" viewBox="0 0 49 53" fill="none" xmlns="http://www.w3.org/2000/svg">
<path fill-rule="evenodd" clip-rule="evenodd" d="M29.1295 1.33975C26.0355 -0.446583 22.2235 -0.446581 19.1295 1.33975L5.00049 9.49713C1.90648 11.2835 0.000488281 14.5847 0.000488281 18.1574V34.4722C0.000488281 38.0448 1.90648 41.3461 5.00049 43.1324L19.1295 51.2898C22.2235 53.0761 26.0355 53.0761 29.1295 51.2898L43.2585 43.1324C46.3525 41.3461 48.2585 38.0448 48.2585 34.4722V18.1574C48.2585 14.5847 46.3525 11.2835 43.2585 9.49713L29.1295 1.33975ZM28.1292 5.07961L30.6574 6.53922V7.44489C29.8763 7.49711 29.2589 8.14721 29.2589 8.9415C29.2589 9.76993 29.9305 10.4415 30.7589 10.4415C31.5874 10.4415 32.2589 9.76993 32.2589 8.9415C32.2589 8.45006 32.0226 8.01381 31.6574 7.74022V7.11657L40.5192 12.233C42.9944 13.662 44.5192 16.303 44.5192 19.1612V33.4679C44.5192 36.326 42.9944 38.967 40.5192 40.3961L33.7579 44.2997V43.4413C34.5864 43.4413 35.2579 42.7697 35.2579 41.9413C35.2579 41.1128 34.5864 40.4413 33.7579 40.4413C32.9295 40.4413 32.2579 41.1128 32.2579 41.9413C32.2579 42.3855 32.4511 42.7847 32.7579 43.0593V44.8771L31.359 45.6847V40.7147L33.0571 38.9792C33.2318 39.0473 33.4219 39.0846 33.6206 39.0846C34.4784 39.0846 35.1737 38.3892 35.1737 37.5315C35.1737 36.6737 34.4784 35.9784 33.6206 35.9784C32.7629 35.9784 32.0675 36.6737 32.0675 37.5315C32.0675 37.8248 32.1488 38.0992 32.2902 38.3332L30.5016 40.1611L30.359 40.3069V40.5108V46.2621L28.1293 47.5494C28.0402 47.6008 27.9505 47.6504 27.86 47.6981V36.6948L30.0575 32.689L30.1191 32.5767V32.4485V24.1215C30.8356 23.9836 31.3769 23.3532 31.3769 22.5964C31.3769 21.7387 30.6815 21.0433 29.8238 21.0433C28.966 21.0433 28.2706 21.7387 28.2706 22.5964C28.2706 23.2005 28.6155 23.724 29.1191 23.9808V32.3204L26.9216 36.3262L26.86 36.4385V36.5666V48.1409C26.1271 48.4071 25.3645 48.5627 24.5968 48.6076V33.8674C25.2262 33.6691 25.6827 33.0807 25.6827 32.3858C25.6827 31.528 24.9873 30.8327 24.1296 30.8327C23.2718 30.8327 22.5765 31.528 22.5765 32.3858C22.5765 33.0564 23.0015 33.6277 23.5968 33.8451V48.6035C22.8287 48.5523 22.0662 48.3903 21.3344 48.1173V36.5667V36.4513L21.2838 36.3476L19.3263 32.3332V23.9733C19.8219 23.7138 20.1601 23.1946 20.1601 22.5964C20.1601 21.7387 19.4647 21.0433 18.607 21.0433C17.7492 21.0433 17.0539 21.7387 17.0539 22.5964C17.0539 23.3584 17.6025 23.9921 18.3263 24.1242V32.4486V32.564L18.3769 32.6678L20.3344 36.6821V47.6639C20.2656 47.6268 20.1972 47.5887 20.1292 47.5494L17.8993 46.262V40.5108V40.3069L17.7567 40.1611L15.9684 38.3335C16.1099 38.0994 16.1913 37.8249 16.1913 37.5314C16.1913 36.6736 15.496 35.9783 14.6382 35.9783C13.7804 35.9783 13.0851 36.6736 13.0851 37.5314C13.0851 38.3891 13.7804 39.0845 14.6382 39.0845C14.8368 39.0845 15.0267 39.0472 15.2012 38.9793L16.8993 40.7147V45.6846L15.758 45.0257V43.0593C16.0648 42.7847 16.258 42.3855 16.258 41.9413C16.258 41.1128 15.5864 40.4413 14.758 40.4413C13.9295 40.4413 13.258 41.1128 13.258 41.9413C13.258 42.7697 13.9295 43.4413 14.758 43.4413V44.4483L7.73927 40.3961C5.26407 38.967 3.73927 36.326 3.73927 33.4679V19.1612C3.73927 16.303 5.26406 13.662 7.73927 12.233L16.6007 7.1168V7.98706C16.3866 8.2464 16.258 8.57893 16.258 8.9415C16.258 9.76993 16.9295 10.4415 17.758 10.4415C18.5864 10.4415 19.258 9.76993 19.258 8.9415C19.258 8.11307 18.5864 7.4415 17.758 7.4415C17.7049 7.4415 17.6524 7.44426 17.6007 7.44964V6.53945L20.1292 5.07961C20.223 5.02547 20.3176 4.97338 20.413 4.92335V9.62449L18.7151 11.3598C18.5405 11.2918 18.3505 11.2545 18.1519 11.2545C17.2941 11.2545 16.5988 11.9498 16.5988 12.8076C16.5988 13.6654 17.2941 14.3607 18.1519 14.3607C19.0096 14.3607 19.705 13.6654 19.705 12.8076C19.705 12.5142 19.6236 12.2397 19.4822 12.0056L21.2704 10.1781L21.413 10.0323V9.82842V4.48288C22.1311 4.2236 22.8776 4.07046 23.6292 4.02344L23.6292 14.3485C23.0169 14.5567 22.5763 15.1366 22.5763 15.8193C22.5763 16.6771 23.2717 17.3724 24.1294 17.3724C24.9872 17.3724 25.6825 16.6771 25.6825 15.8193C25.6825 15.1364 25.2418 14.5565 24.6292 14.3484L24.6292 4.02343C25.4139 4.07251 26.193 4.23726 26.9401 4.51769V9.82781V10.0317L27.0827 10.1775L28.8712 12.0054C28.7299 12.2394 28.6486 12.5138 28.6486 12.8071C28.6486 13.6649 29.3439 14.3602 30.2017 14.3602C31.0594 14.3602 31.7548 13.6649 31.7548 12.8071C31.7548 11.9494 31.0594 11.254 30.2017 11.254C30.0029 11.254 29.8129 11.2913 29.6382 11.3594L27.9401 9.62389V4.97377C28.0035 5.00813 28.0666 5.04341 28.1292 5.07961ZM24.6292 2.0203C26.1875 2.09822 27.7316 2.54064 29.1292 3.34756L31.5206 4.72819H31.6574V4.80717L41.5192 10.5009C44.6132 12.2872 46.5192 15.5885 46.5192 19.1612V33.4679C46.5192 37.0405 44.6132 40.3418 41.5192 42.1281L29.1293 49.2815C28.7178 49.5191 28.2935 49.7251 27.86 49.8994V49.9092H27.8356C25.4575 50.8585 22.8012 50.8586 20.4231 49.9093H20.3344V49.8734C19.9231 49.7047 19.5204 49.5074 19.1292 49.2815L6.73927 42.1281C3.64526 40.3418 1.73927 37.0405 1.73927 33.4679V19.1612C1.73927 15.5885 3.64526 12.2872 6.73927 10.5009L19.1292 3.34756C20.5269 2.54065 22.071 2.09823 23.6292 2.02031V1.96691H24.6292V2.0203ZM34.2579 41.9413C34.2579 42.2174 34.0341 42.4413 33.7579 42.4413C33.4818 42.4413 33.2579 42.2174 33.2579 41.9413C33.2579 41.6651 33.4818 41.4413 33.7579 41.4413C34.0341 41.4413 34.2579 41.6651 34.2579 41.9413ZM14.7599 42.4413C15.0352 42.4402 15.258 42.2168 15.258 41.9413C15.258 41.6651 15.0341 41.4413 14.758 41.4413C14.4818 41.4413 14.258 41.6651 14.258 41.9413C14.258 42.2174 14.4818 42.4413 14.758 42.4413L14.7599 42.4413ZM24.1296 32.9389C24.435 32.9389 24.6827 32.6913 24.6827 32.3858C24.6827 32.0803 24.435 31.8327 24.1296 31.8327C23.8241 31.8327 23.5765 32.0803 23.5765 32.3858C23.5765 32.6913 23.8241 32.9389 24.1296 32.9389ZM34.1737 37.5315C34.1737 37.837 33.9261 38.0846 33.6206 38.0846C33.3152 38.0846 33.0675 37.837 33.0675 37.5315C33.0675 37.226 33.3152 36.9784 33.6206 36.9784C33.9261 36.9784 34.1737 37.226 34.1737 37.5315ZM15.1913 37.5314C15.1913 37.8368 14.9437 38.0845 14.6382 38.0845C14.3327 38.0845 14.0851 37.8368 14.0851 37.5314C14.0851 37.2259 14.3327 36.9783 14.6382 36.9783C14.9437 36.9783 15.1913 37.2259 15.1913 37.5314ZM30.3769 22.5964C30.3769 22.9019 30.1292 23.1495 29.8238 23.1495C29.5183 23.1495 29.2706 22.9019 29.2706 22.5964C29.2706 22.291 29.5183 22.0433 29.8238 22.0433C30.1292 22.0433 30.3769 22.291 30.3769 22.5964ZM18.607 23.1495C18.9124 23.1495 19.1601 22.9019 19.1601 22.5964C19.1601 22.291 18.9124 22.0433 18.607 22.0433C18.3015 22.0433 18.0539 22.291 18.0539 22.5964C18.0539 22.9019 18.3015 23.1495 18.607 23.1495ZM24.1294 15.2662C24.4349 15.2662 24.6825 15.5138 24.6825 15.8193C24.6825 16.1248 24.4349 16.3724 24.1294 16.3724C23.8239 16.3724 23.5763 16.1248 23.5763 15.8193C23.5763 15.5138 23.8239 15.2662 24.1294 15.2662ZM30.7548 12.8071C30.7548 12.5016 30.5072 12.254 30.2017 12.254C29.8962 12.254 29.6486 12.5016 29.6486 12.8071C29.6486 13.1126 29.8962 13.3602 30.2017 13.3602C30.5072 13.3602 30.7548 13.1126 30.7548 12.8071ZM18.705 12.8076C18.705 12.5021 18.4573 12.2545 18.1519 12.2545C17.8464 12.2545 17.5988 12.5021 17.5988 12.8076C17.5988 13.1131 17.8464 13.3607 18.1519 13.3607C18.4573 13.3607 18.705 13.1131 18.705 12.8076ZM31.2589 8.9415C31.2589 9.21764 31.0351 9.4415 30.7589 9.4415C30.4828 9.4415 30.2589 9.21764 30.2589 8.9415C30.2589 8.66536 30.4828 8.4415 30.7589 8.4415C31.0351 8.4415 31.2589 8.66536 31.2589 8.9415ZM17.758 9.4415C18.0341 9.4415 18.258 9.21764 18.258 8.9415C18.258 8.66536 18.0341 8.4415 17.758 8.4415C17.4818 8.4415 17.258 8.66536 17.258 8.9415C17.258 9.21764 17.4818 9.4415 17.758 9.4415Z" fill="#FFD203"/>
</svg>
