<svg width="92" height="32" viewBox="0 0 92 32" fill="none" xmlns="http://www.w3.org/2000/svg">
<path d="M46.6787 19.8711C46.6787 20.3574 46.5879 20.7764 46.4062 21.1279C46.2305 21.4795 45.9932 21.7783 45.6943 22.0244C45.3955 22.2705 45.0498 22.4727 44.6572 22.6309C44.2705 22.7832 43.8662 22.9033 43.4443 22.9912C43.0225 23.0791 42.5977 23.1377 42.1699 23.167C41.748 23.1963 41.3525 23.2109 40.9834 23.2109C40.6201 23.2109 40.2422 23.1963 39.8496 23.167C39.4629 23.1436 39.0762 23.0996 38.6895 23.0352C38.3027 22.9707 37.9219 22.8857 37.5469 22.7803C37.1719 22.6689 36.8174 22.5312 36.4834 22.3672L36.4658 11.0469C36.7939 10.9121 37.1426 10.792 37.5117 10.6865C37.8809 10.5752 38.2559 10.4844 38.6367 10.4141C39.0234 10.3379 39.4072 10.2822 39.7881 10.2471C40.1689 10.2061 40.5381 10.1855 40.8955 10.1855C41.3115 10.1855 41.7305 10.2119 42.1523 10.2646C42.5801 10.3174 42.9902 10.4053 43.3828 10.5283C43.7754 10.6514 44.1416 10.8125 44.4814 11.0117C44.8213 11.2051 45.1172 11.4453 45.3691 11.7324C45.627 12.0195 45.8262 12.3535 45.9668 12.7344C46.1133 13.1152 46.1865 13.5547 46.1865 14.0527C46.1865 14.3809 46.1396 14.6885 46.0459 14.9756C45.9521 15.2627 45.8174 15.5205 45.6416 15.749C45.4658 15.9775 45.252 16.1738 45 16.3379C44.748 16.4961 44.4639 16.6133 44.1475 16.6895C44.5283 16.7891 44.874 16.9355 45.1846 17.1289C45.501 17.3223 45.7676 17.5566 45.9844 17.832C46.207 18.1074 46.377 18.418 46.4941 18.7637C46.6172 19.1094 46.6787 19.4785 46.6787 19.8711ZM42.2139 14.8613C42.2139 14.6914 42.1787 14.5479 42.1084 14.4307C42.0381 14.3076 41.9502 14.208 41.8447 14.1318C41.7451 14.0557 41.6338 14 41.5107 13.9648C41.3936 13.9297 41.2881 13.9121 41.1943 13.9121C41.0771 13.9121 40.9629 13.9297 40.8516 13.9648C40.7402 14 40.6318 14.041 40.5264 14.0879L40.4736 16.0391C40.6084 16.0391 40.7754 16.0273 40.9746 16.0039C41.1738 15.9805 41.3643 15.9307 41.5459 15.8545C41.7334 15.7725 41.8916 15.6553 42.0205 15.5029C42.1494 15.3447 42.2139 15.1309 42.2139 14.8613ZM40.9658 17.7266C40.7959 17.7266 40.6318 17.7441 40.4736 17.7793L40.4385 19.7832C40.5264 19.8008 40.6113 19.8184 40.6934 19.8359C40.7812 19.8477 40.8662 19.8535 40.9482 19.8535C41.0713 19.8535 41.2061 19.8418 41.3525 19.8184C41.499 19.7891 41.6367 19.7363 41.7656 19.6602C41.8945 19.5781 42 19.4697 42.082 19.335C42.1699 19.2002 42.2139 19.0215 42.2139 18.7988C42.2139 18.5762 42.1699 18.3945 42.082 18.2539C42 18.1133 41.8975 18.0049 41.7744 17.9287C41.6514 17.8467 41.5166 17.7939 41.3701 17.7705C41.2236 17.7412 41.0889 17.7266 40.9658 17.7266ZM58.4114 11.0996L54.2805 17.8496L54.4036 22.8242H49.886L49.9915 17.8848L46.7747 11.3633L51.2571 10.8008L52.6634 14.5977L54.1927 10.8008L58.4114 11.0996ZM68.5005 10.6074L68.4127 14.334L65.7935 14.4395L65.4771 22.5957L61.7681 22.7891L61.4341 14.6328L58.815 14.7734L58.9205 10.625L68.5005 10.6074ZM79.3543 15.8984C79.3543 16.4082 79.3192 16.918 79.2489 17.4277C78.2469 17.4922 77.2508 17.5977 76.2606 17.7441C75.2704 17.8848 74.2801 18.0254 73.2899 18.166C73.4422 18.5879 73.6795 18.9248 74.0018 19.1768C74.3299 19.4287 74.7196 19.5547 75.1707 19.5547C75.4051 19.5547 75.66 19.5107 75.9354 19.4229C76.2166 19.335 76.495 19.2266 76.7704 19.0977C77.0457 18.9629 77.3094 18.8193 77.5614 18.667C77.8133 18.5146 78.0301 18.377 78.2118 18.2539L77.7899 22.2441C77.5614 22.4199 77.3123 22.5693 77.0428 22.6924C76.7791 22.8154 76.5037 22.915 76.2166 22.9912C75.9295 23.0674 75.6395 23.123 75.3465 23.1582C75.0536 23.1934 74.7664 23.2109 74.4852 23.2109C73.9051 23.2109 73.3748 23.1318 72.8944 22.9736C72.4139 22.8154 71.9774 22.5957 71.5848 22.3145C71.1981 22.0273 70.8582 21.6904 70.5653 21.3037C70.2723 20.917 70.0291 20.4951 69.8358 20.0381C69.6424 19.5811 69.4959 19.0977 69.3963 18.5879C69.2967 18.0781 69.2469 17.5625 69.2469 17.041C69.2469 16.4961 69.2967 15.9512 69.3963 15.4062C69.4959 14.8613 69.6454 14.3369 69.8446 13.833C70.0496 13.3291 70.3045 12.8633 70.6092 12.4355C70.9198 12.002 71.2801 11.624 71.6903 11.3018C72.1004 10.9795 72.5633 10.7275 73.0789 10.5459C73.6004 10.3643 74.1746 10.2734 74.8016 10.2734C75.3231 10.2734 75.7977 10.3467 76.2254 10.4932C76.659 10.6338 77.0428 10.833 77.3768 11.0908C77.7166 11.3428 78.0096 11.6445 78.2557 11.9961C78.5077 12.3477 78.7127 12.7344 78.8709 13.1562C79.035 13.5723 79.1551 14.0146 79.2313 14.4834C79.3133 14.9463 79.3543 15.418 79.3543 15.8984ZM75.8387 15.4414C75.8387 15.2773 75.8211 15.1104 75.786 14.9404C75.7508 14.7646 75.6922 14.6064 75.6102 14.4658C75.534 14.3252 75.4315 14.2109 75.3026 14.123C75.1737 14.0293 75.0125 13.9824 74.8192 13.9824C74.5848 13.9824 74.3768 14.0469 74.1952 14.1758C74.0194 14.2988 73.867 14.457 73.7381 14.6504C73.6092 14.8379 73.5037 15.043 73.4217 15.2656C73.3397 15.4883 73.2782 15.6934 73.2371 15.8809L75.8387 15.6348V15.4414ZM91.5616 18.5527C91.5616 19.2148 91.5529 19.8711 91.5353 20.5215C91.5236 21.166 91.503 21.8164 91.4738 22.4727L86.4113 22.3848C86.587 21.3477 86.7394 20.3135 86.8683 19.2822C86.9972 18.2451 87.0616 17.1992 87.0616 16.1445C87.0616 16.0684 87.0587 15.9453 87.0529 15.7754C87.047 15.6055 87.0353 15.415 87.0177 15.2041C87.0001 14.9873 86.9738 14.7676 86.9386 14.5449C86.9093 14.3164 86.8654 14.1084 86.8068 13.9209C86.754 13.7334 86.6866 13.5811 86.6046 13.4639C86.5284 13.3408 86.4347 13.2793 86.3234 13.2793C86.1241 13.2793 85.9542 13.3379 85.8136 13.4551C85.6788 13.5723 85.5646 13.7246 85.4708 13.9121C85.3829 14.0938 85.3126 14.2988 85.2599 14.5273C85.2071 14.7559 85.1661 14.9844 85.1368 15.2129C85.1134 15.4414 85.0958 15.6582 85.0841 15.8633C85.0782 16.0625 85.0753 16.2266 85.0753 16.3555C85.046 17.3926 85.0226 18.4238 85.005 19.4492C84.9874 20.4688 84.964 21.5 84.9347 22.543L80.4523 22.7363C80.5695 20.668 80.6808 18.6113 80.7863 16.5664C80.8976 14.5215 80.9855 12.4648 81.0499 10.3965L85.1984 10.1855L85.1632 11.5918C85.3273 11.3926 85.503 11.2051 85.6905 11.0293C85.8839 10.8535 86.089 10.7041 86.3058 10.5811C86.5226 10.4521 86.7511 10.3525 86.9913 10.2822C87.2374 10.2061 87.4952 10.168 87.7648 10.168C88.2628 10.168 88.6993 10.25 89.0743 10.4141C89.4493 10.5781 89.7716 10.8008 90.0411 11.082C90.3107 11.3633 90.5363 11.6973 90.7179 12.084C90.8995 12.4648 91.046 12.8721 91.1573 13.3057C91.2687 13.7393 91.3536 14.1934 91.4122 14.668C91.4708 15.1367 91.5089 15.5996 91.5265 16.0566C91.5499 16.5137 91.5616 16.9561 91.5616 17.3838C91.5616 17.8115 91.5616 18.2012 91.5616 18.5527Z" fill="white"/>
<mask id="mask0_666_4080" style="mask-type:alpha" maskUnits="userSpaceOnUse" x="0" y="0" width="32" height="32">
<rect width="32" height="32" fill="#D9D9D9"/>
</mask>
<g mask="url(#mask0_666_4080)">
<path d="M12.0835 2.70186C12.6565 2.42259 13.2521 2.20808 13.8597 2.05834V5.63421L12.4573 6.62649C12.3965 6.61455 12.3337 6.6083 12.2694 6.6083C11.7341 6.6083 11.3001 7.04226 11.3001 7.57758C11.3001 8.11291 11.7341 8.54687 12.2694 8.54687C12.8048 8.54687 13.2387 8.11291 13.2387 7.57758C13.2387 7.46761 13.2204 7.36192 13.1867 7.26338L14.8009 6.12123V1.8793C15.0811 1.84142 15.3627 1.81688 15.6447 1.80568V8.20267C15.3899 8.37731 15.2227 8.67053 15.2227 9.00279C15.2227 9.53811 15.6567 9.97208 16.192 9.97208C16.7273 9.97208 17.1613 9.53811 17.1613 9.00279C17.1613 8.60772 16.9249 8.26786 16.5859 8.11689V1.81785C16.8683 1.83637 17.1499 1.8683 17.4299 1.91363V6.12123L18.9103 7.1687C18.8524 7.29294 18.8201 7.43149 18.8201 7.57758C18.8201 8.11291 19.2541 8.54687 19.7894 8.54687C20.3247 8.54687 20.7587 8.11291 20.7587 7.57758C20.7587 7.04226 20.3247 6.6083 19.7894 6.6083C19.7759 6.6083 19.7624 6.60857 19.749 6.60912L18.3711 5.63421V2.1186C18.9664 2.2823 19.5486 2.50882 20.1078 2.79816V4.61672C19.8536 4.7841 19.6858 5.07204 19.6858 5.39917C19.6858 5.91619 20.1049 6.33532 20.6219 6.33532C21.1389 6.33532 21.558 5.91619 21.558 5.39917C21.558 5.03599 21.3512 4.72112 21.049 4.56589V3.33055L25.0321 5.63025C27.7986 7.22744 29.5027 10.1792 29.5027 13.3735V18.641C29.5027 21.8354 27.7986 24.7871 25.0321 26.3843L22.8342 27.6533V26.7625C23.1364 26.6073 23.3433 26.2924 23.3433 25.9292C23.3433 25.4122 22.9241 24.993 22.4071 24.993C21.8901 24.993 21.471 25.4122 21.471 25.9292C21.471 26.2563 21.6388 26.5443 21.893 26.7116V28.1967L21.0491 28.6839V24.2025L22.3564 22.9693C22.4932 23.0431 22.6497 23.085 22.8161 23.085C23.3514 23.085 23.7854 22.6511 23.7854 22.1157C23.7854 21.5804 23.3514 21.1465 22.8161 21.1465C22.2808 21.1465 21.8468 21.5804 21.8468 22.1157C21.8468 22.129 21.8471 22.1422 21.8476 22.1553L20.1079 23.7965V29.2163C19.5488 29.5056 18.9665 29.7322 18.3713 29.8959V22.3652L20.1565 19.8548V14.4466C20.3799 14.269 20.5231 13.995 20.5231 13.6874C20.5231 13.1521 20.0891 12.7181 19.5538 12.7181C19.0185 12.7181 18.5845 13.1521 18.5845 13.6874C18.5845 14.1037 18.8469 14.4586 19.2153 14.596V19.5542L17.4301 22.0647V30.1009C17.1501 30.1462 16.8684 30.1781 16.5861 30.1967V20.6002C16.9251 20.4492 17.1614 20.1093 17.1614 19.7142C17.1614 19.1789 16.7275 18.745 16.1922 18.745C15.6568 18.745 15.2229 19.1789 15.2229 19.7142C15.2229 20.0568 15.4005 20.3578 15.6687 20.5302H15.6449L15.6449 30.2088C15.3628 30.1976 15.0811 30.1731 14.8009 30.1352V22.0647L13.0156 19.5542V14.5395C13.3176 14.3754 13.5226 14.0553 13.5226 13.6874C13.5226 13.1521 13.0886 12.7181 12.5533 12.7181C12.018 12.7181 11.584 13.1521 11.584 13.6874C11.584 14.0486 11.7815 14.3636 12.0745 14.5304V19.8548L13.8597 22.3652V29.9562C13.266 29.8099 12.6838 29.6017 12.123 29.3318V23.8825L11.54 22.7825C11.7048 22.6088 11.8058 22.3741 11.8058 22.1157C11.8058 21.5804 11.3718 21.1465 10.8365 21.1465C10.3012 21.1465 9.86724 21.5804 9.86724 22.1157C9.86724 22.5776 10.1902 22.9639 10.6226 23.0613L11.1819 24.1165V28.8174L10.2983 28.3073V26.7815C10.6219 26.6341 10.8468 26.3079 10.8468 25.9292C10.8468 25.4122 10.4277 24.993 9.91063 24.993C9.39361 24.993 8.97449 25.4122 8.97449 25.9292C8.97449 26.2391 9.12512 26.5139 9.35716 26.6843V27.7639L6.96748 26.3843C4.20107 24.7871 2.4969 21.8354 2.4969 18.641V13.3735C2.4969 10.1792 4.20108 7.22744 6.96749 5.63025L11.1424 3.21988V4.64409C10.9103 4.81446 10.7597 5.08923 10.7597 5.39917C10.7597 5.91619 11.1788 6.33532 11.6958 6.33532C12.2129 6.33532 12.632 5.91619 12.632 5.39917C12.632 5.02044 12.4071 4.69424 12.0835 4.54684V2.70186Z" fill="white"/>
<path d="M16.2184 19.7249C16.2193 19.7228 16.2203 19.7199 16.2203 19.7142C16.2203 19.7086 16.2193 19.7056 16.2184 19.7036L16.2172 19.7011L16.2153 19.6982L16.2132 19.6956L16.212 19.6944L16.2091 19.6917C16.2069 19.69 16.2047 19.6887 16.2028 19.688C16.2008 19.6871 16.1978 19.6861 16.1922 19.6861C16.1865 19.6861 16.1836 19.6871 16.1815 19.688C16.1788 19.6891 16.1755 19.6911 16.1723 19.6944L16.1697 19.6973C16.1679 19.6995 16.1667 19.7017 16.1659 19.7036C16.165 19.7056 16.164 19.7086 16.164 19.7142C16.164 19.7199 16.165 19.7228 16.1659 19.7249L16.1672 19.7275L16.1691 19.7304C16.17 19.7317 16.1711 19.7329 16.1723 19.7341C16.1755 19.7374 16.1788 19.7394 16.1815 19.7405C16.1836 19.7414 16.1865 19.7424 16.1922 19.7424C16.1949 19.7424 16.197 19.7421 16.1987 19.7418C16.2005 19.7414 16.2018 19.741 16.2028 19.7405C16.2055 19.7394 16.2088 19.7374 16.212 19.7341C16.2131 19.7331 16.214 19.732 16.2149 19.7309C16.2159 19.7295 16.2168 19.7282 16.2175 19.7269L16.2184 19.7249Z" fill="white"/>
<path d="M22.8442 22.1157C22.8442 22.1214 22.8433 22.1243 22.8424 22.1264C22.8412 22.1291 22.8392 22.1324 22.836 22.1356C22.8327 22.1388 22.8294 22.1409 22.8267 22.142L22.8238 22.143C22.8228 22.1433 22.8216 22.1435 22.8201 22.1437L22.8161 22.1439C22.8105 22.1439 22.8075 22.1429 22.8054 22.142C22.8028 22.1409 22.7994 22.1388 22.7962 22.1356C22.793 22.1324 22.7909 22.1291 22.7898 22.1264C22.7893 22.1253 22.7888 22.1239 22.7885 22.122C22.7882 22.1203 22.788 22.1183 22.788 22.1157C22.788 22.1101 22.7889 22.1071 22.7898 22.1051L22.791 22.1026L22.7919 22.1012L22.7933 22.0992L22.795 22.0971L22.7962 22.0959C22.7994 22.0926 22.8028 22.0906 22.8054 22.0895C22.8075 22.0886 22.8105 22.0876 22.8161 22.0876C22.8217 22.0876 22.8247 22.0886 22.8267 22.0895C22.8294 22.0906 22.8327 22.0926 22.836 22.0959C22.8379 22.0978 22.8394 22.0998 22.8406 22.1016L22.8416 22.1035L22.8424 22.1051C22.8429 22.1064 22.8435 22.1081 22.8439 22.1106L22.8442 22.1136L22.8442 22.1157Z" fill="white"/>
<path d="M10.8628 22.1264C10.8637 22.1243 10.8646 22.1214 10.8646 22.1157C10.8646 22.1101 10.8637 22.1071 10.8628 22.1051C10.8617 22.1024 10.8596 22.0991 10.8564 22.0959C10.8532 22.0926 10.8499 22.0906 10.8472 22.0895C10.8451 22.0886 10.8421 22.0876 10.8365 22.0876C10.8309 22.0876 10.8279 22.0886 10.8259 22.0895C10.8232 22.0906 10.8199 22.0926 10.8166 22.0959C10.8134 22.0991 10.8114 22.1024 10.8102 22.1051C10.8094 22.1071 10.8084 22.1101 10.8084 22.1157C10.8084 22.1214 10.8094 22.1243 10.8102 22.1264C10.8114 22.1291 10.8134 22.1324 10.8166 22.1356C10.8199 22.1388 10.8232 22.1409 10.8259 22.142C10.8279 22.1429 10.8309 22.1439 10.8365 22.1439C10.8421 22.1439 10.8451 22.1429 10.8472 22.142C10.8499 22.1409 10.8532 22.1388 10.8564 22.1356C10.8596 22.1324 10.8617 22.1291 10.8628 22.1264Z" fill="white"/>
<path d="M19.5819 13.6874C19.5819 13.693 19.581 13.696 19.5801 13.6981C19.579 13.7008 19.5769 13.7041 19.5737 13.7073C19.5705 13.7105 19.5671 13.7126 19.5645 13.7137C19.5624 13.7146 19.5594 13.7155 19.5538 13.7155C19.5515 13.7155 19.5496 13.7154 19.548 13.7151C19.5459 13.7147 19.5444 13.7142 19.5432 13.7137C19.5405 13.7126 19.5372 13.7105 19.5339 13.7073C19.5324 13.7057 19.5311 13.7041 19.53 13.7026C19.5289 13.701 19.5281 13.6995 19.5275 13.6981C19.5267 13.696 19.5257 13.693 19.5257 13.6874C19.5257 13.6837 19.5261 13.6812 19.5266 13.6793L19.5275 13.6768C19.5287 13.6741 19.5307 13.6708 19.5339 13.6675C19.5372 13.6643 19.5405 13.6623 19.5432 13.6611C19.5452 13.6603 19.5482 13.6593 19.5538 13.6593C19.5594 13.6593 19.5624 13.6603 19.5645 13.6611C19.5671 13.6623 19.5705 13.6643 19.5737 13.6675C19.5769 13.6708 19.579 13.6741 19.5801 13.6768C19.581 13.6788 19.5819 13.6818 19.5819 13.6874Z" fill="white"/>
<path d="M12.5796 13.6981C12.5805 13.696 12.5814 13.693 12.5814 13.6874C12.5814 13.6818 12.5805 13.6788 12.5796 13.6768C12.5785 13.6741 12.5764 13.6708 12.5732 13.6675C12.57 13.6643 12.5666 13.6623 12.564 13.6611C12.5619 13.6603 12.5589 13.6593 12.5533 13.6593C12.5477 13.6593 12.5447 13.6603 12.5427 13.6611C12.54 13.6623 12.5367 13.6643 12.5334 13.6675C12.5302 13.6708 12.5282 13.6741 12.527 13.6768C12.5261 13.6788 12.5252 13.6818 12.5252 13.6874C12.5252 13.693 12.5261 13.696 12.527 13.6981C12.5282 13.7008 12.5302 13.7041 12.5334 13.7073C12.5367 13.7105 12.54 13.7126 12.5427 13.7137C12.5447 13.7146 12.5477 13.7155 12.5533 13.7155C12.5589 13.7155 12.5619 13.7146 12.564 13.7137C12.5666 13.7126 12.57 13.7105 12.5732 13.7073C12.5764 13.7041 12.5785 13.7008 12.5796 13.6981Z" fill="white"/>
<path d="M16.2183 8.99214C16.2192 8.99419 16.2201 8.99717 16.2201 9.00279C16.2201 9.00841 16.2192 9.01139 16.2183 9.01344C16.2172 9.01613 16.2151 9.01944 16.2119 9.02267C16.2087 9.0259 16.2053 9.02794 16.2027 9.02908C16.2006 9.02995 16.1976 9.0309 16.192 9.0309C16.1864 9.0309 16.1834 9.02995 16.1814 9.02908C16.1787 9.02794 16.1754 9.0259 16.1721 9.02267C16.1689 9.01944 16.1669 9.01613 16.1657 9.01344C16.1649 9.01139 16.1639 9.00841 16.1639 9.00279C16.1639 8.99717 16.1649 8.99419 16.1657 8.99214C16.1669 8.98946 16.1689 8.98614 16.1721 8.98291C16.1754 8.97969 16.1787 8.97764 16.1814 8.9765C16.1834 8.97563 16.1864 8.97468 16.192 8.97468C16.1976 8.97468 16.2006 8.97563 16.2027 8.9765C16.2053 8.97764 16.2087 8.97969 16.2119 8.98291C16.2139 8.98494 16.2155 8.98701 16.2167 8.98893L16.2183 8.99214Z" fill="white"/>
<path d="M19.8175 7.57758C19.8175 7.57197 19.8166 7.56898 19.8157 7.56693C19.8146 7.56425 19.8125 7.56093 19.8093 7.55771C19.8061 7.55448 19.8027 7.55243 19.8001 7.55129C19.798 7.55043 19.795 7.54947 19.7894 7.54947C19.7838 7.54947 19.7808 7.55043 19.7788 7.55129C19.7761 7.55243 19.7728 7.55448 19.7695 7.55771C19.7663 7.56093 19.7643 7.56425 19.7631 7.56693C19.7623 7.56898 19.7613 7.57197 19.7613 7.57758C19.7613 7.58088 19.7616 7.58327 19.7621 7.5851C19.7624 7.58638 19.7628 7.58739 19.7631 7.58824C19.7643 7.59092 19.7663 7.59423 19.7695 7.59746C19.7728 7.60069 19.7761 7.60274 19.7788 7.60387C19.7808 7.60474 19.7838 7.60569 19.7894 7.60569C19.795 7.60569 19.798 7.60474 19.8001 7.60387C19.8027 7.60274 19.8061 7.60069 19.8093 7.59746C19.8125 7.59423 19.8146 7.59092 19.8157 7.58824C19.8166 7.58618 19.8175 7.5832 19.8175 7.57758Z" fill="white"/>
<path d="M12.2975 7.57758C12.2975 7.57197 12.2966 7.56899 12.2957 7.56693C12.2946 7.56425 12.2925 7.56093 12.2893 7.55771C12.2861 7.55448 12.2828 7.55243 12.2801 7.5513C12.278 7.55043 12.275 7.54947 12.2694 7.54947C12.2638 7.54947 12.2608 7.55043 12.2588 7.5513C12.2561 7.55243 12.2528 7.55448 12.2496 7.55771C12.2463 7.56093 12.2443 7.56425 12.2431 7.56693C12.2423 7.56899 12.2413 7.57197 12.2413 7.57758C12.2413 7.5832 12.2423 7.58618 12.2431 7.58824C12.2443 7.59092 12.2463 7.59423 12.2496 7.59746C12.2528 7.60069 12.2561 7.60274 12.2588 7.60387C12.2608 7.60474 12.2638 7.6057 12.2694 7.6057C12.275 7.6057 12.278 7.60474 12.2801 7.60387C12.2828 7.60274 12.2861 7.60069 12.2893 7.59746C12.2925 7.59423 12.2946 7.59092 12.2957 7.58824C12.2966 7.58618 12.2975 7.5832 12.2975 7.57758Z" fill="white"/>
<path d="M20.617 5.39917L20.6176 5.39693C20.6182 5.39564 20.6186 5.39539 20.6183 5.39561C20.6181 5.39584 20.6184 5.39547 20.6197 5.39492L20.6219 5.39423L20.6241 5.39492L20.6254 5.39561C20.6255 5.3957 20.6256 5.3957 20.6254 5.39561C20.6252 5.39538 20.6256 5.39564 20.6261 5.39693L20.6268 5.39916L20.6261 5.40142C20.6256 5.4027 20.6252 5.40296 20.6255 5.40273L20.6241 5.40342L20.6219 5.40412L20.6197 5.40342L20.6183 5.40273L20.6176 5.40142L20.617 5.39917Z" fill="white"/>
<path d="M22.4022 25.9292L22.4029 25.9269L22.4036 25.9256L22.4049 25.9249L22.4071 25.9242L22.4094 25.9249C22.4106 25.9255 22.4109 25.9259 22.4107 25.9256L22.4114 25.9269L22.4121 25.9292L22.4114 25.9314L22.4107 25.9327C22.4107 25.9327 22.4107 25.9326 22.4107 25.9327L22.4094 25.9334L22.4071 25.9341L22.4049 25.9334C22.4036 25.9329 22.4033 25.9325 22.4036 25.9328C22.4038 25.933 22.4034 25.9327 22.4029 25.9314L22.4022 25.9292Z" fill="white"/>
<path d="M11.6909 5.39917L11.6916 5.39693C11.6921 5.39564 11.6925 5.39539 11.6923 5.39561C11.6921 5.39584 11.6923 5.39547 11.6936 5.39492L11.6958 5.39423L11.6981 5.39492C11.6994 5.39547 11.6996 5.39584 11.6994 5.39561C11.6992 5.39539 11.6996 5.39564 11.7001 5.39693L11.7008 5.39916L11.7001 5.40142C11.6996 5.4027 11.6992 5.40296 11.6994 5.40273C11.6996 5.4025 11.6994 5.40288 11.6981 5.40342L11.6959 5.40412L11.6936 5.40342L11.6923 5.40273L11.6916 5.40142L11.6909 5.39917Z" fill="white"/>
<path d="M9.90569 25.9292L9.90638 25.9269L9.90708 25.9256L9.90838 25.9249L9.91061 25.9242L9.91288 25.9249C9.91343 25.9252 9.9138 25.9254 9.91401 25.9255C9.91414 25.9256 9.91429 25.9257 9.91401 25.9255C9.91378 25.9253 9.91434 25.9257 9.91488 25.9269L9.91558 25.9292L9.91488 25.9314C9.91434 25.9327 9.91396 25.933 9.91419 25.9328C9.91442 25.9325 9.91416 25.9329 9.91288 25.9334L9.91065 25.9341L9.90838 25.9334C9.9071 25.9329 9.90685 25.9325 9.90707 25.9328C9.9072 25.9329 9.90726 25.933 9.90707 25.9328C9.90694 25.9325 9.90661 25.932 9.90638 25.9314L9.90569 25.9292Z" fill="white"/>
<path fill-rule="evenodd" clip-rule="evenodd" d="M20.7059 1.33638C17.7939 -0.344872 14.2061 -0.344874 11.2941 1.33638L5.64704 4.59671C2.73503 6.27796 0.941162 9.38503 0.941162 12.7475V19.2682C0.941162 22.6307 2.73503 25.7378 5.64704 27.419L11.2941 30.6794C14.2061 32.3606 17.7939 32.3606 20.7059 30.6794L26.3529 27.419C29.2649 25.7378 31.0588 22.6307 31.0588 19.2682V12.7475C31.0588 9.38504 29.2649 6.27796 26.3529 4.59671L20.7059 1.33638ZM20.941 2.18145C17.8834 0.416136 14.1163 0.416134 11.0586 2.18145L6.4969 4.81517C3.43929 6.58048 1.55572 9.84291 1.55572 13.3735V18.641C1.55572 22.1716 3.43928 25.434 6.4969 27.1993L11.0586 29.8331C14.1163 31.5984 17.8834 31.5984 20.941 29.8331L25.5027 27.1994C28.5603 25.434 30.4439 22.1716 30.4439 18.641V13.3735C30.4439 9.84291 28.5603 6.58048 25.5027 4.81517L20.941 2.18145Z" fill="white"/>
</g>
</svg>
