<svg width="146" height="53" viewBox="0 0 146 53" fill="none" xmlns="http://www.w3.org/2000/svg">
<path d="M70.0557 31.7852C70.0557 32.5957 69.9043 33.2939 69.6016 33.8799C69.3086 34.4658 68.9131 34.9639 68.415 35.374C67.917 35.7842 67.3408 36.1211 66.6865 36.3848C66.042 36.6387 65.3682 36.8389 64.665 36.9854C63.9619 37.1318 63.2539 37.2295 62.541 37.2783C61.8379 37.3271 61.1787 37.3516 60.5635 37.3516C59.958 37.3516 59.3281 37.3271 58.6738 37.2783C58.0293 37.2393 57.3848 37.166 56.7402 37.0586C56.0957 36.9512 55.4609 36.8096 54.8359 36.6338C54.2109 36.4482 53.6201 36.2188 53.0635 35.9453L53.0342 17.0781C53.5811 16.8535 54.1621 16.6533 54.7773 16.4775C55.3926 16.292 56.0176 16.1406 56.6523 16.0234C57.2969 15.8965 57.9365 15.8037 58.5713 15.7451C59.2061 15.6768 59.8213 15.6426 60.417 15.6426C61.1104 15.6426 61.8086 15.6865 62.5117 15.7744C63.2246 15.8623 63.9082 16.0088 64.5625 16.2139C65.2168 16.4189 65.8271 16.6875 66.3936 17.0195C66.96 17.3418 67.4531 17.7422 67.873 18.2207C68.3027 18.6992 68.6348 19.2559 68.8691 19.8906C69.1133 20.5254 69.2354 21.2578 69.2354 22.0879C69.2354 22.6348 69.1572 23.1475 69.001 23.626C68.8447 24.1045 68.6201 24.5342 68.3271 24.915C68.0342 25.2959 67.6777 25.623 67.2578 25.8965C66.8379 26.1602 66.3643 26.3555 65.8369 26.4824C66.4717 26.6484 67.0479 26.8926 67.5654 27.2148C68.0928 27.5371 68.5371 27.9277 68.8984 28.3867C69.2695 28.8457 69.5527 29.3633 69.748 29.9395C69.9531 30.5156 70.0557 31.1309 70.0557 31.7852ZM62.6143 23.4355C62.6143 23.1523 62.5557 22.9131 62.4385 22.7178C62.3213 22.5127 62.1748 22.3467 61.999 22.2197C61.833 22.0928 61.6475 22 61.4424 21.9414C61.2471 21.8828 61.0713 21.8535 60.915 21.8535C60.7197 21.8535 60.5293 21.8828 60.3438 21.9414C60.1582 22 59.9775 22.0684 59.8018 22.1465L59.7139 25.3984C59.9385 25.3984 60.2168 25.3789 60.5488 25.3398C60.8809 25.3008 61.1982 25.2178 61.501 25.0908C61.8135 24.9541 62.0771 24.7588 62.292 24.5049C62.5068 24.2412 62.6143 23.8848 62.6143 23.4355ZM60.5342 28.2109C60.251 28.2109 59.9775 28.2402 59.7139 28.2988L59.6553 31.6387C59.8018 31.668 59.9434 31.6973 60.0801 31.7266C60.2266 31.7461 60.3682 31.7559 60.5049 31.7559C60.71 31.7559 60.9346 31.7363 61.1787 31.6973C61.4229 31.6484 61.6523 31.5605 61.8672 31.4336C62.082 31.2969 62.2578 31.1162 62.3945 30.8916C62.541 30.667 62.6143 30.3691 62.6143 29.998C62.6143 29.627 62.541 29.3242 62.3945 29.0898C62.2578 28.8555 62.0869 28.6748 61.8818 28.5479C61.6768 28.4111 61.4521 28.3232 61.208 28.2842C60.9639 28.2354 60.7393 28.2109 60.5342 28.2109ZM89.6102 17.166L82.7254 28.416L82.9305 36.707H75.4012L75.577 28.4746L70.2156 17.6055L77.6863 16.668L80.0301 22.9961L82.5789 16.668L89.6102 17.166ZM106.425 16.3457L106.279 22.5566L101.914 22.7324L101.386 36.3262L95.2047 36.6484L94.648 23.0547L90.2828 23.2891L90.4586 16.375L106.425 16.3457ZM124.515 25.1641C124.515 26.0137 124.456 26.8633 124.339 27.7129C122.669 27.8203 121.009 27.9961 119.359 28.2402C117.708 28.4746 116.058 28.709 114.408 28.9434C114.662 29.6465 115.057 30.208 115.594 30.6279C116.141 31.0479 116.79 31.2578 117.542 31.2578C117.933 31.2578 118.358 31.1846 118.817 31.0381C119.286 30.8916 119.749 30.7109 120.208 30.4961C120.667 30.2715 121.107 30.0322 121.527 29.7783C121.947 29.5244 122.308 29.2949 122.611 29.0898L121.908 35.7402C121.527 36.0332 121.112 36.2822 120.662 36.4873C120.223 36.6924 119.764 36.8584 119.286 36.9854C118.807 37.1123 118.324 37.2051 117.835 37.2637C117.347 37.3223 116.869 37.3516 116.4 37.3516C115.433 37.3516 114.549 37.2197 113.748 36.9561C112.948 36.6924 112.22 36.3262 111.566 35.8574C110.921 35.3789 110.355 34.8174 109.867 34.1729C109.378 33.5283 108.973 32.8252 108.651 32.0635C108.329 31.3018 108.084 30.4961 107.918 29.6465C107.752 28.7969 107.669 27.9375 107.669 27.0684C107.669 26.1602 107.752 25.252 107.918 24.3438C108.084 23.4355 108.333 22.5615 108.665 21.7217C109.007 20.8818 109.432 20.1055 109.94 19.3926C110.457 18.6699 111.058 18.04 111.742 17.5029C112.425 16.9658 113.197 16.5459 114.056 16.2432C114.925 15.9404 115.882 15.7891 116.927 15.7891C117.796 15.7891 118.587 15.9111 119.3 16.1553C120.023 16.3896 120.662 16.7217 121.219 17.1514C121.786 17.5713 122.274 18.0742 122.684 18.6602C123.104 19.2461 123.446 19.8906 123.709 20.5938C123.983 21.2871 124.183 22.0244 124.31 22.8057C124.447 23.5771 124.515 24.3633 124.515 25.1641ZM118.656 24.4023C118.656 24.1289 118.626 23.8506 118.568 23.5674C118.509 23.2744 118.412 23.0107 118.275 22.7764C118.148 22.542 117.977 22.3516 117.762 22.2051C117.547 22.0488 117.279 21.9707 116.956 21.9707C116.566 21.9707 116.219 22.0781 115.916 22.293C115.623 22.498 115.37 22.7617 115.155 23.084C114.94 23.3965 114.764 23.7383 114.627 24.1094C114.491 24.4805 114.388 24.8223 114.32 25.1348L118.656 24.7246V24.4023ZM144.861 29.5879C144.861 30.6914 144.846 31.7852 144.817 32.8691C144.797 33.9434 144.763 35.0273 144.714 36.1211L136.277 35.9746C136.57 34.2461 136.823 32.5225 137.038 30.8037C137.253 29.0752 137.361 27.332 137.361 25.5742C137.361 25.4473 137.356 25.2422 137.346 24.959C137.336 24.6758 137.317 24.3584 137.287 24.0068C137.258 23.6455 137.214 23.2793 137.155 22.9082C137.107 22.5273 137.033 22.1807 136.936 21.8682C136.848 21.5557 136.736 21.3018 136.599 21.1064C136.472 20.9014 136.316 20.7988 136.13 20.7988C135.798 20.7988 135.515 20.8965 135.28 21.0918C135.056 21.2871 134.865 21.541 134.709 21.8535C134.563 22.1562 134.446 22.498 134.358 22.8789C134.27 23.2598 134.201 23.6406 134.153 24.0215C134.113 24.4023 134.084 24.7637 134.065 25.1055C134.055 25.4375 134.05 25.7109 134.05 25.9258C134.001 27.6543 133.962 29.373 133.933 31.082C133.904 32.7812 133.864 34.5 133.816 36.2383L126.345 36.5605C126.54 33.1133 126.726 29.6855 126.902 26.2773C127.087 22.8691 127.234 19.4414 127.341 15.9941L134.255 15.6426L134.196 17.9863C134.47 17.6543 134.763 17.3418 135.075 17.0488C135.398 16.7559 135.739 16.5068 136.101 16.3018C136.462 16.0869 136.843 15.9209 137.243 15.8037C137.654 15.6768 138.083 15.6133 138.532 15.6133C139.363 15.6133 140.09 15.75 140.715 16.0234C141.34 16.2969 141.877 16.668 142.326 17.1367C142.776 17.6055 143.152 18.1621 143.454 18.8066C143.757 19.4414 144.001 20.1201 144.187 20.8428C144.372 21.5654 144.514 22.3223 144.612 23.1133C144.709 23.8945 144.773 24.666 144.802 25.4277C144.841 26.1895 144.861 26.9268 144.861 27.6396C144.861 28.3525 144.861 29.002 144.861 29.5879Z" fill="#FFD203"/>
<path fill-rule="evenodd" clip-rule="evenodd" d="M29.1294 1.33987C26.0353 -0.446461 22.2234 -0.446459 19.1294 1.33987L5.00035 9.49725C1.90634 11.2836 0.000350952 14.5849 0.000350952 18.1575V34.4723C0.000350952 38.0449 1.90634 41.3462 5.00035 43.1325L19.1294 51.2899C22.2234 53.0762 26.0353 53.0762 29.1294 51.2899L43.2584 43.1325C46.3524 41.3462 48.2584 38.0449 48.2584 34.4723V18.1575C48.2584 14.5848 46.3524 11.2836 43.2584 9.49725L29.1294 1.33987ZM28.1291 5.07973L30.6572 6.53934V7.44501C29.8762 7.49723 29.2588 8.14733 29.2588 8.94162C29.2588 9.77005 29.9304 10.4416 30.7588 10.4416C31.5872 10.4416 32.2588 9.77005 32.2588 8.94162C32.2588 8.45018 32.0224 8.01393 31.6572 7.74034V7.11669L40.5191 12.2331C42.9943 13.6621 44.5191 16.3032 44.5191 19.1613V33.468C44.5191 36.3261 42.9943 38.9671 40.5191 40.3962L33.7578 44.2998V43.4414C34.5862 43.4414 35.2578 42.7698 35.2578 41.9414C35.2578 41.113 34.5862 40.4414 33.7578 40.4414C32.9294 40.4414 32.2578 41.113 32.2578 41.9414C32.2578 42.3856 32.4509 42.7848 32.7578 43.0595V44.8772L31.3589 45.6849V40.7148L33.057 38.9793C33.2317 39.0474 33.4217 39.0847 33.6205 39.0847C34.4782 39.0847 35.1736 38.3894 35.1736 37.5316C35.1736 36.6739 34.4782 35.9785 33.6205 35.9785C32.7627 35.9785 32.0674 36.6739 32.0674 37.5316C32.0674 37.8249 32.1487 38.0993 32.29 38.3333L30.5015 40.1612L30.3589 40.307V40.5109V46.2622L28.1291 47.5496C28.0401 47.601 27.9503 47.6505 27.8599 47.6982V36.6949L30.0573 32.6891L30.1189 32.5768V32.4487V24.1216C30.8355 23.9837 31.3767 23.3533 31.3767 22.5966C31.3767 21.7388 30.6814 21.0434 29.8236 21.0434C28.9659 21.0434 28.2705 21.7388 28.2705 22.5966C28.2705 23.2006 28.6154 23.7241 29.1189 23.981V32.3205L26.9215 36.3263L26.8599 36.4386V36.5668V48.141C26.127 48.4073 25.3644 48.5628 24.5967 48.6077V33.8675C25.2261 33.6692 25.6825 33.0809 25.6825 32.3859C25.6825 31.5282 24.9872 30.8328 24.1294 30.8328C23.2717 30.8328 22.5763 31.5282 22.5763 32.3859C22.5763 33.0565 23.0013 33.6279 23.5967 33.8452V48.6036C22.8285 48.5525 22.0661 48.3904 21.3342 48.1175V36.5668V36.4514L21.2836 36.3477L19.3262 32.3334V23.9734C19.8218 23.7139 20.1599 23.1947 20.1599 22.5966C20.1599 21.7388 19.4646 21.0434 18.6068 21.0434C17.7491 21.0434 17.0537 21.7388 17.0537 22.5966C17.0537 23.3585 17.6024 23.9923 18.3262 24.1244V32.4488V32.5642L18.3768 32.6679L20.3342 36.6823V47.664C20.2654 47.627 20.1971 47.5888 20.1291 47.5496L17.8992 46.2621V40.5109V40.307L17.7565 40.1613L15.9683 38.3336C16.1098 38.0995 16.1912 37.825 16.1912 37.5315C16.1912 36.6737 15.4958 35.9784 14.6381 35.9784C13.7803 35.9784 13.085 36.6737 13.085 37.5315C13.085 38.3892 13.7803 39.0846 14.6381 39.0846C14.8366 39.0846 15.0265 39.0473 15.2011 38.9794L16.8992 40.7149V45.6848L15.7578 45.0258V43.0595C16.0647 42.7848 16.2578 42.3856 16.2578 41.9414C16.2578 41.113 15.5862 40.4414 14.7578 40.4414C13.9294 40.4414 13.2578 41.113 13.2578 41.9414C13.2578 42.7698 13.9294 43.4414 14.7578 43.4414V44.4484L7.73914 40.3962C5.26393 38.9671 3.73913 36.3261 3.73913 33.468V19.1613C3.73913 16.3032 5.26393 13.6621 7.73913 12.2331L16.6006 7.11692V7.98719C16.3865 8.24652 16.2578 8.57905 16.2578 8.94162C16.2578 9.77005 16.9294 10.4416 17.7578 10.4416C18.5862 10.4416 19.2578 9.77005 19.2578 8.94162C19.2578 8.1132 18.5862 7.44162 17.7578 7.44162C17.7047 7.44162 17.6523 7.44438 17.6006 7.44977V6.53957L20.1291 5.07973C20.2229 5.02559 20.3175 4.9735 20.4128 4.92347V9.62461L18.7149 11.3599C18.5403 11.2919 18.3504 11.2546 18.1517 11.2546C17.294 11.2546 16.5986 11.95 16.5986 12.8077C16.5986 13.6655 17.294 14.3608 18.1517 14.3608C19.0095 14.3608 19.7048 13.6655 19.7048 12.8077C19.7048 12.5143 19.6235 12.2398 19.482 12.0058L21.2702 10.1782L21.4128 10.0325V9.82854V4.483C22.1309 4.22373 22.8774 4.07058 23.6291 4.02356L23.6291 14.3486C23.0167 14.5568 22.5762 15.1367 22.5762 15.8194C22.5762 16.6772 23.2715 17.3725 24.1293 17.3725C24.987 17.3725 25.6824 16.6772 25.6824 15.8194C25.6824 15.1365 25.2416 14.5566 24.6291 14.3485L24.6291 4.02355C25.4138 4.07263 26.1929 4.23739 26.9399 4.51781V9.82794V10.0319L27.0826 10.1776L28.8711 12.0055C28.7298 12.2396 28.6484 12.5139 28.6484 12.8072C28.6484 13.665 29.3438 14.3603 30.2015 14.3603C31.0593 14.3603 31.7547 13.665 31.7547 12.8072C31.7547 11.9495 31.0593 11.2541 30.2015 11.2541C30.0028 11.2541 29.8127 11.2915 29.6381 11.3595L27.9399 9.62401V4.97389C28.0034 5.00825 28.0664 5.04353 28.1291 5.07973ZM24.6291 2.02043C26.1873 2.09834 27.7315 2.54076 29.1291 3.34768L31.5204 4.72831H31.6572V4.80729L41.5191 10.501C44.6131 12.2874 46.5191 15.5886 46.5191 19.1613V33.468C46.5191 37.0407 44.6131 40.3419 41.5191 42.1283L29.1291 49.2816C28.7176 49.5192 28.2934 49.7252 27.8599 49.8996V49.9093H27.8355C25.4574 50.8587 22.8011 50.8587 20.423 49.9094H20.3342V49.8735C19.923 49.7048 19.5203 49.5075 19.1291 49.2816L6.73914 42.1283C3.64513 40.3419 1.73913 37.0407 1.73913 33.468V19.1613C1.73913 15.5886 3.64512 12.2874 6.73913 10.501L19.1291 3.34768C20.5267 2.54077 22.0708 2.09836 23.6291 2.02043V1.96703H24.6291V2.02043ZM34.2578 41.9414C34.2578 42.2175 34.034 42.4414 33.7578 42.4414C33.4817 42.4414 33.2578 42.2175 33.2578 41.9414C33.2578 41.6653 33.4817 41.4414 33.7578 41.4414C34.034 41.4414 34.2578 41.6653 34.2578 41.9414ZM14.7598 42.4414C15.035 42.4403 15.2578 42.2169 15.2578 41.9414C15.2578 41.6653 15.034 41.4414 14.7578 41.4414C14.4817 41.4414 14.2578 41.6653 14.2578 41.9414C14.2578 42.2175 14.4817 42.4414 14.7578 42.4414L14.7598 42.4414ZM24.1294 32.939C24.4349 32.939 24.6825 32.6914 24.6825 32.3859C24.6825 32.0804 24.4349 31.8328 24.1294 31.8328C23.8239 31.8328 23.5763 32.0804 23.5763 32.3859C23.5763 32.6914 23.8239 32.939 24.1294 32.939ZM34.1736 37.5316C34.1736 37.8371 33.926 38.0847 33.6205 38.0847C33.315 38.0847 33.0674 37.8371 33.0674 37.5316C33.0674 37.2261 33.315 36.9785 33.6205 36.9785C33.926 36.9785 34.1736 37.2261 34.1736 37.5316ZM15.1912 37.5315C15.1912 37.837 14.9435 38.0846 14.6381 38.0846C14.3326 38.0846 14.085 37.837 14.085 37.5315C14.085 37.226 14.3326 36.9784 14.6381 36.9784C14.9435 36.9784 15.1912 37.226 15.1912 37.5315ZM30.3767 22.5966C30.3767 22.902 30.1291 23.1497 29.8236 23.1497C29.5181 23.1497 29.2705 22.902 29.2705 22.5966C29.2705 22.2911 29.5181 22.0434 29.8236 22.0434C30.1291 22.0434 30.3767 22.2911 30.3767 22.5966ZM18.6068 23.1497C18.9123 23.1497 19.1599 22.902 19.1599 22.5966C19.1599 22.2911 18.9123 22.0434 18.6068 22.0434C18.3013 22.0434 18.0537 22.2911 18.0537 22.5966C18.0537 22.902 18.3013 23.1497 18.6068 23.1497ZM24.1293 15.2663C24.4348 15.2663 24.6824 15.514 24.6824 15.8194C24.6824 16.1249 24.4348 16.3725 24.1293 16.3725C23.8238 16.3725 23.5762 16.1249 23.5762 15.8194C23.5762 15.514 23.8238 15.2663 24.1293 15.2663ZM30.7547 12.8072C30.7547 12.5018 30.507 12.2541 30.2015 12.2541C29.8961 12.2541 29.6484 12.5018 29.6484 12.8072C29.6484 13.1127 29.8961 13.3603 30.2015 13.3603C30.507 13.3603 30.7547 13.1127 30.7547 12.8072ZM18.7048 12.8077C18.7048 12.5023 18.4572 12.2546 18.1517 12.2546C17.8463 12.2546 17.5986 12.5023 17.5986 12.8077C17.5986 13.1132 17.8463 13.3608 18.1517 13.3608C18.4572 13.3608 18.7048 13.1132 18.7048 12.8077ZM31.2588 8.94162C31.2588 9.21777 31.0349 9.44162 30.7588 9.44162C30.4826 9.44162 30.2588 9.21777 30.2588 8.94162C30.2588 8.66548 30.4826 8.44162 30.7588 8.44162C31.0349 8.44162 31.2588 8.66548 31.2588 8.94162ZM17.7578 9.44162C18.034 9.44162 18.2578 9.21777 18.2578 8.94162C18.2578 8.66548 18.034 8.44162 17.7578 8.44162C17.4817 8.44162 17.2578 8.66548 17.2578 8.94162C17.2578 9.21777 17.4817 9.44162 17.7578 9.44162Z" fill="#FFD203"/>
</svg>
